<?xml version="1.0" standalone="no"?>
<!DOCTYPE svg PUBLIC "-//W3C//DTD SVG 20010904//EN"
 "http://www.w3.org/TR/2001/REC-SVG-20010904/DTD/svg10.dtd">
<svg version="1.0" xmlns="http://www.w3.org/2000/svg"
 width="150.000000pt" height="150.000000pt" viewBox="0 0 150.000000 150.000000"
 preserveAspectRatio="xMidYMid meet">
<metadata>
Created by potrace 1.15, written by Peter Selinger 2001-2017
</metadata>
<g transform="translate(0.000000,150.000000) scale(0.100000,-0.100000)"
fill="#000000" stroke="none">
<path d="M358 1485 c-79 -21 -138 -55 -204 -117 -109 -102 -154 -207 -154
-359 0 -146 44 -252 145 -352 94 -92 206 -137 340 -137 129 0 234 42 330 132
206 193 208 524 3 714 -67 62 -131 97 -215 119 -69 18 -180 18 -245 0z m294
-102 c88 -41 160 -113 201 -201 61 -128 47 -290 -34 -409 -38 -55 -101 -107
-169 -141 -50 -24 -66 -27 -165 -27 -100 0 -115 2 -167 28 -170 83 -270 267
-239 439 26 151 131 276 274 329 83 31 212 23 299 -18z"/>
<path d="M319 1217 c-19 -12 -47 -47 -64 -77 -26 -49 -30 -64 -29 -135 0 -62
5 -89 22 -121 32 -63 75 -94 127 -94 62 0 94 15 141 65 l41 44 22 -50 c37 -82
83 -97 144 -48 35 27 37 69 3 69 -13 0 -29 -7 -36 -15 -27 -33 -54 -14 -77 55
l-21 64 23 46 c34 68 75 171 75 191 0 18 -18 29 -37 22 -6 -2 -26 -40 -43 -84
-18 -43 -36 -79 -40 -79 -5 0 -13 15 -19 33 -39 117 -148 170 -232 114z m120
-63 c39 -33 95 -147 87 -179 -9 -35 -87 -115 -122 -124 -66 -19 -116 36 -122
133 -5 75 10 130 46 169 33 34 71 35 111 1z"/>
<path d="M841 656 l-54 -54 62 -76 c34 -41 128 -133 209 -204 153 -134 258
-238 295 -291 12 -17 24 -31 27 -31 3 0 32 27 65 61 l60 61 -35 26 c-73 56
-128 113 -274 281 -138 160 -264 281 -291 281 -6 0 -35 -24 -64 -54z m202
-136 c96 -118 258 -298 311 -347 60 -55 64 -61 49 -76 -15 -14 -20 -11 -60 37
-24 29 -119 119 -211 199 -93 80 -190 171 -216 202 l-48 56 22 24 23 24 54
-46 c30 -26 64 -59 76 -73z"/>
</g>
</svg>
